<mxfile host="app.diagrams.net" modified="2022-04-23T20:46:56.213Z" agent="5.0 (Windows NT 10.0; Win64; x64) AppleWebKit/537.36 (KHTML, like Gecko) Chrome/100.0.4896.127 Safari/537.36 Edg/100.0.1185.50" etag="TUuvQsHdo0Yi9RfH8MZ9" version="17.4.6" type="github">
  <diagram id="C5RBs43oDa-KdzZeNtuy" name="Page-1">
    <mxGraphModel dx="1584" dy="794" grid="1" gridSize="10" guides="1" tooltips="1" connect="1" arrows="1" fold="1" page="1" pageScale="1" pageWidth="413" pageHeight="583" math="0" shadow="0">
      <root>
        <mxCell id="WIyWlLk6GJQsqaUBKTNV-0" />
        <mxCell id="WIyWlLk6GJQsqaUBKTNV-1" parent="WIyWlLk6GJQsqaUBKTNV-0" />
        <mxCell id="ja_oueI8BCVdQs4uf5KY-3" style="edgeStyle=orthogonalEdgeStyle;rounded=0;orthogonalLoop=1;jettySize=auto;html=1;entryX=0.5;entryY=0;entryDx=0;entryDy=0;entryPerimeter=0;" edge="1" parent="WIyWlLk6GJQsqaUBKTNV-1" source="ja_oueI8BCVdQs4uf5KY-0" target="ja_oueI8BCVdQs4uf5KY-2">
          <mxGeometry relative="1" as="geometry" />
        </mxCell>
        <mxCell id="ja_oueI8BCVdQs4uf5KY-0" value="" style="strokeWidth=2;html=1;shape=mxgraph.flowchart.start_2;whiteSpace=wrap;fillColor=#000000;strokeColor=#FFFFFF;" vertex="1" parent="WIyWlLk6GJQsqaUBKTNV-1">
          <mxGeometry x="259.94" y="40" width="40" height="40" as="geometry" />
        </mxCell>
        <mxCell id="ja_oueI8BCVdQs4uf5KY-5" style="edgeStyle=orthogonalEdgeStyle;rounded=0;orthogonalLoop=1;jettySize=auto;html=1;exitX=0.5;exitY=1;exitDx=0;exitDy=0;exitPerimeter=0;entryX=0.5;entryY=0;entryDx=0;entryDy=0;entryPerimeter=0;" edge="1" parent="WIyWlLk6GJQsqaUBKTNV-1" source="ja_oueI8BCVdQs4uf5KY-2" target="ja_oueI8BCVdQs4uf5KY-4">
          <mxGeometry relative="1" as="geometry" />
        </mxCell>
        <mxCell id="ja_oueI8BCVdQs4uf5KY-2" value="Login" style="strokeWidth=2;html=1;shape=mxgraph.flowchart.terminator;whiteSpace=wrap;" vertex="1" parent="WIyWlLk6GJQsqaUBKTNV-1">
          <mxGeometry x="226.94" y="100" width="106" height="40" as="geometry" />
        </mxCell>
        <mxCell id="ja_oueI8BCVdQs4uf5KY-6" style="edgeStyle=orthogonalEdgeStyle;rounded=0;orthogonalLoop=1;jettySize=auto;html=1;exitX=1;exitY=0.5;exitDx=0;exitDy=0;exitPerimeter=0;" edge="1" parent="WIyWlLk6GJQsqaUBKTNV-1" source="ja_oueI8BCVdQs4uf5KY-4">
          <mxGeometry relative="1" as="geometry">
            <mxPoint x="415.94" y="185" as="targetPoint" />
            <Array as="points">
              <mxPoint x="365.94" y="185" />
              <mxPoint x="365.94" y="185" />
            </Array>
          </mxGeometry>
        </mxCell>
        <mxCell id="ja_oueI8BCVdQs4uf5KY-7" value="no" style="edgeLabel;html=1;align=center;verticalAlign=middle;resizable=0;points=[];" vertex="1" connectable="0" parent="ja_oueI8BCVdQs4uf5KY-6">
          <mxGeometry x="0.2826" y="-5" relative="1" as="geometry">
            <mxPoint x="-17" y="-5" as="offset" />
          </mxGeometry>
        </mxCell>
        <mxCell id="ja_oueI8BCVdQs4uf5KY-12" value="yes" style="edgeStyle=orthogonalEdgeStyle;rounded=0;orthogonalLoop=1;jettySize=auto;html=1;exitX=0.5;exitY=1;exitDx=0;exitDy=0;exitPerimeter=0;" edge="1" parent="WIyWlLk6GJQsqaUBKTNV-1" source="ja_oueI8BCVdQs4uf5KY-4">
          <mxGeometry relative="1" as="geometry">
            <mxPoint x="279.94" y="260" as="targetPoint" />
            <Array as="points">
              <mxPoint x="278.94" y="240" />
              <mxPoint x="279.94" y="240" />
            </Array>
          </mxGeometry>
        </mxCell>
        <mxCell id="ja_oueI8BCVdQs4uf5KY-4" value="Register" style="strokeWidth=2;html=1;shape=mxgraph.flowchart.decision;whiteSpace=wrap;" vertex="1" parent="WIyWlLk6GJQsqaUBKTNV-1">
          <mxGeometry x="234.94" y="160" width="89" height="50" as="geometry" />
        </mxCell>
        <mxCell id="ja_oueI8BCVdQs4uf5KY-13" style="edgeStyle=orthogonalEdgeStyle;rounded=0;orthogonalLoop=1;jettySize=auto;html=1;exitX=0.5;exitY=1;exitDx=0;exitDy=0;exitPerimeter=0;" edge="1" parent="WIyWlLk6GJQsqaUBKTNV-1" source="ja_oueI8BCVdQs4uf5KY-8">
          <mxGeometry relative="1" as="geometry">
            <mxPoint x="468.94" y="260" as="targetPoint" />
          </mxGeometry>
        </mxCell>
        <mxCell id="ja_oueI8BCVdQs4uf5KY-8" value="Signup" style="strokeWidth=2;html=1;shape=mxgraph.flowchart.terminator;whiteSpace=wrap;" vertex="1" parent="WIyWlLk6GJQsqaUBKTNV-1">
          <mxGeometry x="415.94" y="165" width="106" height="40" as="geometry" />
        </mxCell>
        <mxCell id="ja_oueI8BCVdQs4uf5KY-18" value="" style="endArrow=none;html=1;rounded=0;labelBackgroundColor=#FFFFFF;labelBorderColor=default;fontSize=11;fontColor=default;strokeWidth=5;" edge="1" parent="WIyWlLk6GJQsqaUBKTNV-1">
          <mxGeometry width="50" height="50" relative="1" as="geometry">
            <mxPoint x="259.94" y="260" as="sourcePoint" />
            <mxPoint x="479.94" y="260" as="targetPoint" />
            <Array as="points">
              <mxPoint x="374.94" y="260" />
            </Array>
          </mxGeometry>
        </mxCell>
        <mxCell id="ja_oueI8BCVdQs4uf5KY-20" value="" style="endArrow=classic;html=1;rounded=0;labelBackgroundColor=#000000;labelBorderColor=default;fontSize=20;fontColor=default;strokeWidth=1;entryX=0.5;entryY=0;entryDx=0;entryDy=0;entryPerimeter=0;" edge="1" parent="WIyWlLk6GJQsqaUBKTNV-1" target="ja_oueI8BCVdQs4uf5KY-23">
          <mxGeometry width="50" height="50" relative="1" as="geometry">
            <mxPoint x="365.94" y="260" as="sourcePoint" />
            <mxPoint x="365.44000000000005" y="315" as="targetPoint" />
            <Array as="points" />
          </mxGeometry>
        </mxCell>
        <mxCell id="ja_oueI8BCVdQs4uf5KY-30" style="edgeStyle=orthogonalEdgeStyle;rounded=0;orthogonalLoop=1;jettySize=auto;html=1;labelBackgroundColor=#FFFFFF;labelBorderColor=none;fontSize=14;fontColor=none;strokeWidth=1;" edge="1" parent="WIyWlLk6GJQsqaUBKTNV-1">
          <mxGeometry relative="1" as="geometry">
            <mxPoint x="515.94" y="330" as="targetPoint" />
            <mxPoint x="417" y="260" as="sourcePoint" />
            <Array as="points">
              <mxPoint x="420" y="260" />
              <mxPoint x="420" y="330" />
            </Array>
          </mxGeometry>
        </mxCell>
        <mxCell id="ja_oueI8BCVdQs4uf5KY-36" style="edgeStyle=orthogonalEdgeStyle;rounded=0;orthogonalLoop=1;jettySize=auto;html=1;labelBackgroundColor=#FFFFFF;labelBorderColor=none;fontSize=14;fontColor=none;strokeWidth=1;" edge="1" parent="WIyWlLk6GJQsqaUBKTNV-1" target="ja_oueI8BCVdQs4uf5KY-37">
          <mxGeometry relative="1" as="geometry">
            <mxPoint x="260" y="329.52941176470586" as="targetPoint" />
            <mxPoint x="320" y="260" as="sourcePoint" />
            <Array as="points">
              <mxPoint x="310" y="260" />
              <mxPoint x="310" y="330" />
            </Array>
          </mxGeometry>
        </mxCell>
        <mxCell id="ja_oueI8BCVdQs4uf5KY-24" style="edgeStyle=orthogonalEdgeStyle;rounded=0;orthogonalLoop=1;jettySize=auto;html=1;labelBackgroundColor=#FFFFFF;labelBorderColor=default;fontSize=14;fontColor=none;strokeWidth=1;" edge="1" parent="WIyWlLk6GJQsqaUBKTNV-1" source="ja_oueI8BCVdQs4uf5KY-23">
          <mxGeometry relative="1" as="geometry">
            <mxPoint x="365.94" y="470" as="targetPoint" />
          </mxGeometry>
        </mxCell>
        <mxCell id="ja_oueI8BCVdQs4uf5KY-23" value="Add article" style="strokeWidth=2;html=1;shape=mxgraph.flowchart.terminator;whiteSpace=wrap;fontSize=14;fontColor=none;" vertex="1" parent="WIyWlLk6GJQsqaUBKTNV-1">
          <mxGeometry x="305.94" y="345" width="120" height="40" as="geometry" />
        </mxCell>
        <mxCell id="ja_oueI8BCVdQs4uf5KY-26" value="yes" style="edgeStyle=orthogonalEdgeStyle;rounded=0;orthogonalLoop=1;jettySize=auto;html=1;labelBackgroundColor=#FFFFFF;labelBorderColor=none;fontSize=14;fontColor=none;strokeWidth=1;" edge="1" parent="WIyWlLk6GJQsqaUBKTNV-1" source="ja_oueI8BCVdQs4uf5KY-25">
          <mxGeometry x="-0.2" relative="1" as="geometry">
            <mxPoint x="365.94" y="570" as="targetPoint" />
            <mxPoint as="offset" />
          </mxGeometry>
        </mxCell>
        <mxCell id="ja_oueI8BCVdQs4uf5KY-28" style="edgeStyle=orthogonalEdgeStyle;rounded=0;orthogonalLoop=1;jettySize=auto;html=1;entryX=0;entryY=0.5;entryDx=0;entryDy=0;entryPerimeter=0;labelBackgroundColor=#FFFFFF;labelBorderColor=none;fontSize=14;fontColor=none;strokeWidth=1;" edge="1" parent="WIyWlLk6GJQsqaUBKTNV-1" source="ja_oueI8BCVdQs4uf5KY-25" target="ja_oueI8BCVdQs4uf5KY-2">
          <mxGeometry relative="1" as="geometry">
            <Array as="points">
              <mxPoint x="40" y="495" />
              <mxPoint x="40" y="120" />
            </Array>
          </mxGeometry>
        </mxCell>
        <mxCell id="ja_oueI8BCVdQs4uf5KY-29" value="no" style="edgeLabel;html=1;align=center;verticalAlign=middle;resizable=0;points=[];fontSize=14;fontColor=none;" vertex="1" connectable="0" parent="ja_oueI8BCVdQs4uf5KY-28">
          <mxGeometry x="0.038" y="-1" relative="1" as="geometry">
            <mxPoint as="offset" />
          </mxGeometry>
        </mxCell>
        <mxCell id="ja_oueI8BCVdQs4uf5KY-25" value="authorized" style="rhombus;whiteSpace=wrap;html=1;fontSize=14;fontColor=none;" vertex="1" parent="WIyWlLk6GJQsqaUBKTNV-1">
          <mxGeometry x="315.94" y="470" width="100" height="50" as="geometry" />
        </mxCell>
        <mxCell id="ja_oueI8BCVdQs4uf5KY-49" style="edgeStyle=orthogonalEdgeStyle;rounded=0;orthogonalLoop=1;jettySize=auto;html=1;labelBackgroundColor=#FFFFFF;labelBorderColor=none;fontSize=14;fontColor=none;strokeWidth=1;" edge="1" parent="WIyWlLk6GJQsqaUBKTNV-1" source="ja_oueI8BCVdQs4uf5KY-27">
          <mxGeometry relative="1" as="geometry">
            <mxPoint x="365.44000000000005" y="799.9999999999998" as="targetPoint" />
          </mxGeometry>
        </mxCell>
        <mxCell id="ja_oueI8BCVdQs4uf5KY-27" value="article added/edited" style="strokeWidth=2;html=1;shape=mxgraph.flowchart.terminator;whiteSpace=wrap;fontSize=14;fontColor=none;" vertex="1" parent="WIyWlLk6GJQsqaUBKTNV-1">
          <mxGeometry x="314.94" y="570" width="101" height="40" as="geometry" />
        </mxCell>
        <mxCell id="ja_oueI8BCVdQs4uf5KY-44" style="edgeStyle=orthogonalEdgeStyle;rounded=0;orthogonalLoop=1;jettySize=auto;html=1;entryX=1;entryY=0.5;entryDx=0;entryDy=0;labelBackgroundColor=#FFFFFF;labelBorderColor=none;fontSize=14;fontColor=none;strokeWidth=1;" edge="1" parent="WIyWlLk6GJQsqaUBKTNV-1" source="ja_oueI8BCVdQs4uf5KY-31" target="ja_oueI8BCVdQs4uf5KY-25">
          <mxGeometry relative="1" as="geometry">
            <Array as="points">
              <mxPoint x="561" y="495" />
            </Array>
          </mxGeometry>
        </mxCell>
        <mxCell id="ja_oueI8BCVdQs4uf5KY-31" value="Edit article" style="strokeWidth=2;html=1;shape=mxgraph.flowchart.terminator;whiteSpace=wrap;fontSize=14;fontColor=none;" vertex="1" parent="WIyWlLk6GJQsqaUBKTNV-1">
          <mxGeometry x="515.94" y="310" width="90" height="35" as="geometry" />
        </mxCell>
        <mxCell id="ja_oueI8BCVdQs4uf5KY-34" value="the user must has been logged in for 10 days to be able to edit" style="shape=note;whiteSpace=wrap;html=1;backgroundOutline=1;darkOpacity=0.05;fontSize=14;fontColor=none;" vertex="1" parent="WIyWlLk6GJQsqaUBKTNV-1">
          <mxGeometry x="496.94" y="220" width="190" height="60" as="geometry" />
        </mxCell>
        <mxCell id="ja_oueI8BCVdQs4uf5KY-35" value="" style="endArrow=none;dashed=1;html=1;rounded=0;labelBackgroundColor=#FFFFFF;labelBorderColor=none;fontSize=14;fontColor=none;strokeWidth=1;" edge="1" parent="WIyWlLk6GJQsqaUBKTNV-1">
          <mxGeometry width="50" height="50" relative="1" as="geometry">
            <mxPoint x="560.3499999999999" y="310" as="sourcePoint" />
            <mxPoint x="559.94" y="280" as="targetPoint" />
            <Array as="points" />
          </mxGeometry>
        </mxCell>
        <mxCell id="ja_oueI8BCVdQs4uf5KY-39" value="" style="edgeStyle=orthogonalEdgeStyle;rounded=0;orthogonalLoop=1;jettySize=auto;html=1;labelBackgroundColor=#FFFFFF;labelBorderColor=none;fontSize=14;fontColor=none;strokeWidth=1;" edge="1" parent="WIyWlLk6GJQsqaUBKTNV-1" source="ja_oueI8BCVdQs4uf5KY-37" target="ja_oueI8BCVdQs4uf5KY-38">
          <mxGeometry relative="1" as="geometry" />
        </mxCell>
        <mxCell id="ja_oueI8BCVdQs4uf5KY-37" value="Search article" style="strokeWidth=2;html=1;shape=mxgraph.flowchart.terminator;whiteSpace=wrap;fontSize=14;fontColor=none;fillColor=#FFFFFF;" vertex="1" parent="WIyWlLk6GJQsqaUBKTNV-1">
          <mxGeometry x="159.82" y="312.5" width="100.12" height="35" as="geometry" />
        </mxCell>
        <mxCell id="ja_oueI8BCVdQs4uf5KY-41" value="yes" style="edgeStyle=orthogonalEdgeStyle;rounded=0;orthogonalLoop=1;jettySize=auto;html=1;labelBackgroundColor=#FFFFFF;labelBorderColor=none;fontSize=14;fontColor=none;strokeWidth=1;" edge="1" parent="WIyWlLk6GJQsqaUBKTNV-1" source="ja_oueI8BCVdQs4uf5KY-38" target="ja_oueI8BCVdQs4uf5KY-40">
          <mxGeometry relative="1" as="geometry">
            <Array as="points">
              <mxPoint x="210" y="660" />
              <mxPoint x="210" y="660" />
            </Array>
          </mxGeometry>
        </mxCell>
        <mxCell id="ja_oueI8BCVdQs4uf5KY-43" value="no" style="edgeStyle=orthogonalEdgeStyle;rounded=0;orthogonalLoop=1;jettySize=auto;html=1;labelBackgroundColor=#FFFFFF;labelBorderColor=none;fontSize=14;fontColor=none;strokeWidth=1;" edge="1" parent="WIyWlLk6GJQsqaUBKTNV-1" source="ja_oueI8BCVdQs4uf5KY-38" target="ja_oueI8BCVdQs4uf5KY-42">
          <mxGeometry relative="1" as="geometry" />
        </mxCell>
        <mxCell id="ja_oueI8BCVdQs4uf5KY-38" value="found" style="rhombus;whiteSpace=wrap;html=1;fontSize=14;fillColor=#FFFFFF;fontColor=none;strokeWidth=2;" vertex="1" parent="WIyWlLk6GJQsqaUBKTNV-1">
          <mxGeometry x="169.88" y="520" width="80" height="80" as="geometry" />
        </mxCell>
        <mxCell id="ja_oueI8BCVdQs4uf5KY-50" style="edgeStyle=orthogonalEdgeStyle;rounded=0;orthogonalLoop=1;jettySize=auto;html=1;labelBackgroundColor=#FFFFFF;labelBorderColor=none;fontSize=14;fontColor=none;strokeWidth=1;" edge="1" parent="WIyWlLk6GJQsqaUBKTNV-1" source="ja_oueI8BCVdQs4uf5KY-40">
          <mxGeometry relative="1" as="geometry">
            <mxPoint x="209.88000000000034" y="799.9999999999998" as="targetPoint" />
          </mxGeometry>
        </mxCell>
        <mxCell id="ja_oueI8BCVdQs4uf5KY-40" value="view the article" style="ellipse;whiteSpace=wrap;html=1;fontSize=14;fillColor=#FFFFFF;fontColor=none;strokeWidth=2;" vertex="1" parent="WIyWlLk6GJQsqaUBKTNV-1">
          <mxGeometry x="152.88" y="690" width="114" height="50" as="geometry" />
        </mxCell>
        <mxCell id="ja_oueI8BCVdQs4uf5KY-51" style="edgeStyle=orthogonalEdgeStyle;rounded=0;orthogonalLoop=1;jettySize=auto;html=1;labelBackgroundColor=#FFFFFF;labelBorderColor=none;fontSize=14;fontColor=none;strokeWidth=1;" edge="1" parent="WIyWlLk6GJQsqaUBKTNV-1" source="ja_oueI8BCVdQs4uf5KY-42">
          <mxGeometry relative="1" as="geometry">
            <mxPoint x="29.940000000000055" y="799.9999999999998" as="targetPoint" />
          </mxGeometry>
        </mxCell>
        <mxCell id="ja_oueI8BCVdQs4uf5KY-42" value="go to the article page on Wikipedia" style="ellipse;whiteSpace=wrap;html=1;fontSize=14;fillColor=#FFFFFF;fontColor=none;strokeWidth=2;" vertex="1" parent="WIyWlLk6GJQsqaUBKTNV-1">
          <mxGeometry x="-50" y="530" width="159.88" height="60" as="geometry" />
        </mxCell>
        <mxCell id="ja_oueI8BCVdQs4uf5KY-45" value="" style="verticalLabelPosition=bottom;verticalAlign=top;html=1;shape=mxgraph.flowchart.on-page_reference;fontSize=14;fontColor=none;strokeColor=#000000;fillColor=#FFFFFF;" vertex="1" parent="WIyWlLk6GJQsqaUBKTNV-1">
          <mxGeometry x="179.88" y="860" width="60" height="60" as="geometry" />
        </mxCell>
        <mxCell id="ja_oueI8BCVdQs4uf5KY-47" value="" style="verticalLabelPosition=bottom;verticalAlign=top;html=1;shape=mxgraph.flowchart.on-page_reference;fontSize=14;fontColor=none;strokeColor=#FFFFFF;fillColor=#000000;" vertex="1" parent="WIyWlLk6GJQsqaUBKTNV-1">
          <mxGeometry x="184.38" y="865" width="50" height="50" as="geometry" />
        </mxCell>
        <mxCell id="ja_oueI8BCVdQs4uf5KY-48" value="" style="endArrow=none;html=1;rounded=0;labelBackgroundColor=#FFFFFF;labelBorderColor=none;fontSize=14;fontColor=none;strokeWidth=9;" edge="1" parent="WIyWlLk6GJQsqaUBKTNV-1">
          <mxGeometry width="50" height="50" relative="1" as="geometry">
            <mxPoint y="800" as="sourcePoint" />
            <mxPoint x="410" y="800" as="targetPoint" />
          </mxGeometry>
        </mxCell>
        <mxCell id="ja_oueI8BCVdQs4uf5KY-52" value="" style="endArrow=classic;html=1;rounded=0;labelBackgroundColor=#FFFFFF;labelBorderColor=none;fontSize=14;fontColor=none;strokeWidth=1;entryX=0.5;entryY=0;entryDx=0;entryDy=0;entryPerimeter=0;" edge="1" parent="WIyWlLk6GJQsqaUBKTNV-1" target="ja_oueI8BCVdQs4uf5KY-45">
          <mxGeometry width="50" height="50" relative="1" as="geometry">
            <mxPoint x="210" y="790" as="sourcePoint" />
            <mxPoint x="230" y="810" as="targetPoint" />
          </mxGeometry>
        </mxCell>
      </root>
    </mxGraphModel>
  </diagram>
</mxfile>
